<svg id="Livello_1" data-name="Livello 1" xmlns="http://www.w3.org/2000/svg" xmlns:xlink="http://www.w3.org/1999/xlink" viewBox="0 0 283.46 283.46">
  <defs>
    <style>
      .cls-1 {
        fill: url(#Sfumatura_senza_nome_8);
      }
    </style>
    <linearGradient id="Sfumatura_senza_nome_8" data-name="Sfumatura senza nome 8" x1="51.95" y1="296.83" x2="281.82" y2="66.96" gradientUnits="userSpaceOnUse">
      <stop offset="0" stop-color="#1e76bc"/>
      <stop offset="0.37" stop-color="#41949c"/>
      <stop offset="0.78" stop-color="#62af7e"/>
      <stop offset="1" stop-color="#6fba73"/>
    </linearGradient>
  </defs>
  <title>TradeForAll</title>
  <path class="cls-1" d="M29.38,226.64H18.83v28.6H10.36v-28.6H0v-6.55H29.38Zm17.43,9.84-2.68-.19c-2.56,0-4.2.81-4.93,2.41v16.54H31.07V229.12H38.7l.26,3.36c1.37-2.56,3.27-3.84,5.72-3.84a8,8,0,0,1,2.27.29Zm16.92,18.76A9.29,9.29,0,0,1,63,252.9a7.55,7.55,0,0,1-6.27,2.82,9.27,9.27,0,0,1-6.28-2.23,7.11,7.11,0,0,1-2.58-5.61A7.31,7.31,0,0,1,51,241.46q3.13-2.18,9.12-2.18h2.51V237.9q0-3.61-3.11-3.61c-1.93,0-2.9,1-2.9,2.86H48.45A7.3,7.3,0,0,1,51.67,231a13.58,13.58,0,0,1,8.22-2.36,11.84,11.84,0,0,1,7.89,2.44,8.47,8.47,0,0,1,3,6.68v11.57a11.79,11.79,0,0,0,1.11,5.5v.41Zm-5.1-5.31a4.59,4.59,0,0,0,2.53-.65,4.23,4.23,0,0,0,1.43-1.47v-4.18H60.23c-2.84,0-4.25,1.27-4.25,3.81a2.33,2.33,0,0,0,.75,1.8A2.68,2.68,0,0,0,58.63,249.93ZM74.23,242q0-6.21,2.68-9.78a8.81,8.81,0,0,1,7.48-3.57,7.51,7.51,0,0,1,5.89,2.75V218.16h8.16v37.08H91.12l-.41-2.8a7.68,7.68,0,0,1-6.37,3.28A8.79,8.79,0,0,1,77,252.15Q74.23,248.58,74.23,242Zm8.13.5q0,7,4.06,7a4,4,0,0,0,3.86-2.27v-10a3.9,3.9,0,0,0-3.81-2.32q-3.77,0-4.08,6.09Zm33.34,13.23a13.43,13.43,0,0,1-9.73-3.58,12.38,12.38,0,0,1-3.72-9.33v-.68a16,16,0,0,1,1.49-7.07,10.87,10.87,0,0,1,4.33-4.74,13.07,13.07,0,0,1,6.76-1.68,11.32,11.32,0,0,1,8.69,3.41q3.18,3.42,3.19,9.53v3.16H110.53a5.9,5.9,0,0,0,1.91,3.45,5.65,5.65,0,0,0,3.81,1.26,7.3,7.3,0,0,0,6-2.71l3.72,4.4a10.43,10.43,0,0,1-4.31,3.34A14.55,14.55,0,0,1,115.7,255.72Zm-.92-20.81q-3.57,0-4.25,4.74h8.21V239a4.06,4.06,0,0,0-1-3A3.92,3.92,0,0,0,114.78,234.91Zm50,6.33H151.13v14h-8.47V220.09h23.51v6.55h-15v8.08H164.8Zm3,.7a15.42,15.42,0,0,1,1.52-7,10.87,10.87,0,0,1,4.37-4.7,13.21,13.21,0,0,1,6.69-1.64q5.87,0,9.24,3.63t3.38,9.89v.29q0,6.11-3.39,9.69a12,12,0,0,1-9.19,3.58,12.17,12.17,0,0,1-8.95-3.34,13.11,13.11,0,0,1-3.65-9.06Zm8.14.51a9.71,9.71,0,0,0,1.13,5.31,3.79,3.79,0,0,0,3.35,1.69q4.35,0,4.45-6.69v-.82c0-4.68-1.5-7-4.49-7-2.72,0-4.2,2-4.42,6.06Zm36.44-6-2.67-.19c-2.56,0-4.21.81-4.93,2.41v16.54h-8.13V229.12h7.62l.27,3.36c1.37-2.56,3.27-3.84,5.72-3.84a8.08,8.08,0,0,1,2.27.29ZM248,248.67H236.35l-2,6.57h-9.06l12.9-35.15h8l13,35.15H250Zm-9.59-6.54h7.56l-3.79-12.19Zm31.5,13.11h-8.15V218.16h8.15Zm13.59,0h-8.15V218.16h8.15ZM107.62,158.37V116a10.06,10.06,0,0,0-10.07-10.06H70.37A10.06,10.06,0,0,0,60.3,116v49.25C73.4,164.78,89.68,162.39,107.62,158.37Zm82-7v61.53H237v-85A400.41,400.41,0,0,1,189.66,151.33ZM98.75,190.1h8.87V178.45A376.2,376.2,0,0,1,60.3,187v25.88h47.32V201.51Zm54.74-25c-9.8,3.34-19.54,6.34-29.08,9v16h9.68l-9.68,12.47v10.29h47.31V158.51Q162.8,161.89,153.49,165.06ZM163.4,95l8.32-10.72V81.58a9.38,9.38,0,0,0-9.38-9.38H133.79a9.37,9.37,0,0,0-9.38,9.38v72.69c11.22-3,22.87-6.48,34.61-10.48q6.51-2.21,12.7-4.49V95Zm26.26-54.78V83.26L198.74,95h-9.08v37.38A366.8,366.8,0,0,0,237,109.21v-69a12.09,12.09,0,0,0-12.09-12.09H201.75A12.09,12.09,0,0,0,189.66,40.18Zm93.76,28.38L257.34,87.43l13.48,0c-10.06,16.88-54.24,41.79-110.29,60.84C93.29,171.11,34.44,176.88,29.09,161.14c-2.56-7.53,7.59-18.61,26.23-30.63V117.22C18.27,137.1-3.92,157.59.58,170.83,7.52,191.25,75.3,186.67,152,160.61,214.84,139.24,264.15,110.06,276.05,89l7.41,9.61Z"/>
</svg>
